HIERARCHY
ROOT Hips
{
	OFFSET 0.00000 0.00000 0.00000
	CHANNELS 6 Xposition Yposition Zposition Yrotation Zrotation Xrotation 
	JOINT Lumbar
	{
		OFFSET 0 0 0
		CHANNELS 3 Zrotation Xrotation Yrotation
		JOINT Neck
		{
			OFFSET 0.00 0.2701 0.00
			CHANNELS 3 Zrotation Xrotation Yrotation
			End Site
			{
				OFFSET 0.00 0.1379 0.00
			}
		}
		JOINT RightShoulder
		{
			OFFSET 0.0119 0.2289 0.1181
			CHANNELS 3 Zrotation Xrotation Yrotation
			JOINT RightElbow
			{
				OFFSET 0.00 -0.1475 0.00
				CHANNELS 2 Zrotation Yrotation
				JOINT RightWrist
				{
					OFFSET 0.00 -0.1605 0.00
					CHANNELS 2 Zrotation Xrotation
					End Site
					{
						OFFSET 0.0040 -0.1068 0.0006
					}
				}
			}
		}
		JOINT LeftShoulder
		{
			OFFSET 0.0119 0.2289 -0.1181
			CHANNELS 3 Zrotation Xrotation Yrotation
			JOINT LeftElbow
			{
				OFFSET 0.00 -0.1475 0.00
				CHANNELS 2 Zrotation Yrotation
				JOINT LeftWrist
				{
					OFFSET 0.00 -0.1605 0.00
					CHANNELS 2 Zrotation Xrotation
					End Site
					{
						OFFSET 0.0040 -0.1068 -0.0006
					}
				}
			}
		}
	}
	JOINT RightHip
	{
		OFFSET 0.0316 -0.0424 0.0458
		CHANNELS 3 Zrotation Xrotation Yrotation
		JOINT RightKnee
		{
			OFFSET 0.00 -0.2438 0.00
			CHANNELS 1 Zrotation
			JOINT RightAnkle
			{
				OFFSET 0.00 -0.2449 0.00
				CHANNELS 3 Zrotation Xrotation Yrotation
				End Site
				{
					OFFSET 0.1237 -0.0542 0.0051
				}
			}
		}
	}
	JOINT LeftHip
	{
		OFFSET 0.0316 -0.0424 -0.0458
		CHANNELS 3 Zrotation Xrotation Yrotation
		JOINT LeftKnee
		{
			OFFSET 0.00 -0.2438 0.00
			CHANNELS 1 Zrotation
			JOINT LeftAnkle
			{
				OFFSET 0.00 -0.2449 0.00
				CHANNELS 3 Zrotation Xrotation Yrotation
				End Site
				{
					OFFSET 0.1237 -0.0542 -0.0051
				}
			}
		}
	}
}
MOTION
Frames: 14
Frame Time: 0.02
-0.28811 -0.29024 0.17927 29.49551 21.01551 -7.35979 23.45417 2.93322 -4.99677 -12.24163 -5.15651 -2.11718 34.11936 4.38807 55.37642 102.08782 94.47163 79.65952 -2.66769 26.38988 0.83281 -55.56619 98.96043 -102.54104 79.45107 2.06687 71.46306 -8.34458 -9.72024 -73.84969 -13.38268 -3.1946 -4.1379 72.13602 11.9583 5.00947 -71.76588 -14.74451 2.85691 4.03711
-0.28832 -0.29031 0.17924 29.43786 21.31854 -7.23639 23.19633 2.91034 -5.4358 -12.08614 -5.3188 -2.1172 30.92424 6.49568 55.43912 98.73676 88.29825 79.88786 -3.18679 26.20611 1.46604 -55.5781 102.1113 -90.65752 80.04306 5.55101 71.17012 -8.37006 -9.68082 -73.791 -13.45726 -3.18884 -4.13902 71.83522 11.82433 4.87962 -71.71097 -14.75864 2.87042 4.04532
-0.28855 -0.29037 0.1792 29.36583 21.67931 -7.07724 22.85992 2.88448 -5.98737 -11.8891 -5.51155 -2.11721 26.77148 9.07163 55.48192 94.59543 80.54805 80.02831 -3.81926 25.95862 2.25471 -55.59306 106.06862 -75.80064 80.79396 9.90342 70.81904 -8.40122 -9.6248 -73.72034 -13.5492 -3.18147 -4.14032 71.47025 11.66338 4.7264 -71.64054 -14.7797 2.88659 4.05532
-0.28877 -0.29044 0.17916 29.30504 21.99885 -6.94451 22.57425 2.86164 -6.45694 -11.71025 -5.68186 -2.11722 23.28179 11.28671 55.52814 91.04946 73.93437 80.1845 -4.36307 25.74642 2.9294 -55.60587 109.43824 -63.12763 81.43388 13.61744 70.51121 -8.43183 -9.58249 -73.6595 -13.6305 -3.1743 -4.1411 71.15093 11.51532 4.57968 -71.57975 -14.79832 2.90088 4.06416
-0.289 -0.29048 0.17911 29.22507 22.3808 -6.76977 22.22591 2.83194 -7.05425 -11.53427 -5.88679 -2.11724 18.85678 14.11792 55.59887 86.52208 65.57625 80.44455 -5.0606 25.50621 3.78364 -55.62187 113.72497 -47.00273 82.23593 18.34217 70.13349 -8.45507 -9.5154 -73.58067 -13.72344 -3.16928 -4.14365 70.7632 11.36222 4.44712 -71.50836 -14.81424 2.91801 4.07449
-0.2892 -0.29057 0.17909 29.18095 22.64789 -6.67289 21.98789 2.81579 -7.41564 -11.34203 -6.02907 -2.11725 16.12727 15.79301 55.61466 83.82602 60.43579 80.47166 -5.46901 25.30932 4.30553 -55.63202 116.31638 -37.27484 82.74105 21.19351 69.88583 -8.49402 -9.49463 -73.53595 -13.79641 -3.15951 -4.14263 70.50097 11.21574 4.28329 -71.45511 -14.83707 2.92988 4.08212
-0.28935 -0.29079 0.17916 29.24444 22.57027 -6.80986 22.08911 2.83737 -7.06752 -11.12035 -5.97203 -2.11727 18.50036 14.00356 55.46921 86.61862 64.94693 79.8153 -5.0142 25.25242 3.82938 -55.62474 113.81749 -46.71941 82.35657 18.42812 70.02738 -8.58168 -9.61685 -73.59245 -13.80818 -3.13618 -4.13119 70.6173 11.07381 4.00663 -71.45725 -14.88041 2.92625 4.0819
-0.28948 -0.29105 0.17925 29.34352 22.37745 -7.02459 22.30131 2.87284 -6.48363 -10.88279 -5.85487 -2.11728 22.57688 11.0622 55.27137 91.23909 72.68246 78.93739 -4.27113 25.24072 3.02116 -55.61159 109.62286 -62.56351 81.67308 13.78901 70.29899 -8.68366 -9.78427 -73.68291 -13.7996 -3.1083 -4.11625 70.85926 10.94294 3.70473 -71.47785 -14.92993 2.91729 4.07888
-0.28961 -0.29128 0.17932 29.42291 22.24621 -7.19703 22.45269 2.90205 -6.02782 -10.6492 -5.777 -2.11729 25.74961 8.75177 55.10692 94.86564 78.69065 78.20114 -3.68467 25.20538 2.39275 -55.60149 106.34416 -74.96239 81.14679 10.16049 70.50064 -8.77459 -9.92364 -73.75515 -13.80149 -3.08307 -4.10327 71.03293 10.82095 3.43635 -71.48899 -14.97454 2.91096 4.07711
-0.28975 -0.29154 0.1794 29.51663 22.07833 -7.39733 22.64507 2.93048 -5.48806 -10.4281 -5.64772 -2.1173 29.43556 6.00769 54.90214 99.14849 85.74196 77.29154 -2.99514 25.18066 1.64809 -55.58989 102.48403 -89.50921 80.5371 5.89564 70.74577 -8.8848 -10.09375 -73.83881 -13.79877 -3.05535 -4.08876 71.25119 10.64101 3.07666 -71.50416 -15.02809 2.90383 4.07549
-0.28988 -0.29176 0.17948 29.58917 21.95828 -7.55884 22.77952 2.96443 -5.0651 -10.17747 -5.61326 -2.11731 32.47067 3.8828 54.76822 102.5152 91.41671 76.68826 -2.44902 25.14565 1.06427 -55.57996 99.417 -101.15939 80.02675 2.49378 70.93238 -8.95833 -10.21127 -73.90684 -13.80065 -3.0317 -4.07657 71.40777 10.58259 2.8982 -71.51548 -15.0646 2.89708 4.07289
-0.28998 -0.29188 0.17954 29.59426 22.00149 -7.59192 22.72652 3.00568 -5.0269 -9.85172 -5.83463 -2.11733 33.28586 3.78487 54.85092 102.85323 92.42426 77.01344 -2.38033 25.06905 1.00866 -55.57614 98.99184 -103.09787 79.87411 1.98184 70.92249 -8.92557 -10.16847 -73.92405 -13.81978 -3.02081 -4.0718 71.35907 10.8759 3.25492 -71.51219 -15.05087 2.89262 4.06793
-0.29007 -0.29195 0.1796 29.57692 22.09596 -7.58388 22.61186 3.05288 -5.11295 -9.49654 -6.15722 -2.11734 33.39321 4.34098 55.00537 102.21965 91.95717 77.64976 -2.4634 24.98093 1.12513 -55.57414 99.41268 -101.94225 79.82904 2.38989 70.85008 -8.85568 -10.0721 -73.9243 -13.84422 -3.0141 -4.06945 71.24507 11.28785 3.78981 -71.50441 -15.02003 2.88872 4.06212
-0.29017 -0.29205 0.17966 29.57011 22.16473 -7.59636 22.52599 3.10037 -5.13858 -9.15337 -6.44691 -2.11735 33.83327 4.57198 55.12169 102.06901 92.22425 78.1253 -2.46913 24.90023 1.16007 -55.57131 99.41755 -102.31564 79.72715 2.34021 70.80865 -8.80369 -10.00292 -73.93193 -13.86647 -3.00519 -4.06586 71.16405 11.63311 4.22437 -71.49835 -14.99808 2.8846 4.0569
